<svg xmlns="http://www.w3.org/2000/svg" xmlns:xlink="http://www.w3.org/1999/xlink" width="16" height="16" viewBox="0 0 16 16" fill="none">
<path    stroke="rgba(15, 23, 42, 1)" stroke-width="1" stroke-linejoin="round" stroke-linecap="round"  d="M13.1138 3.98103C12.1636 2.7717 10.8155 1.93828 9.30893 1.62875C7.80238 1.31922 6.23489 1.55361 4.8848 2.29031C3.5347 3.02701 2.48938 4.21834 1.93444 5.65275C1.37951 7.08716 1.35087 8.67182 1.85363 10.1253C2.35638 11.5789 3.35799 12.8072 4.68058 13.5922C6.00318 14.3772 7.56118 14.668 9.07793 14.4131C10.5947 14.1582 11.972 13.374 12.9653 12.1998C13.9587 11.0256 14.5037 9.53738 14.5037 7.99937M13.1138 1.50411L13.1138 3.98103M10.6369 3.98103L13.1138 3.98103">
</path>
</svg>
