<svg xmlns="http://www.w3.org/2000/svg" xmlns:xlink="http://www.w3.org/1999/xlink" width="15.3701171875" height="15" viewBox="0 0 15.3701171875 15" fill="none">
<circle cx="6.75" cy="6.75" r="6" stroke="rgba(32, 32, 39, 1)" stroke-width="1.5"   >
</circle>
<path   fill="rgba(32, 32, 39, 1)"  d="M8.46234 5.40143C7.58365 4.52274 6.15902 4.52274 5.28033 5.40143L4.21967 4.34076C5.68414 2.87628 8.05853 2.87628 9.52301 4.34076L8.46234 5.40143ZM5.28033 5.40143C4.98744 5.69432 4.51256 5.69432 4.21967 5.40143C3.92677 5.10853 3.92677 4.63366 4.21967 4.34076C4.51256 4.04786 4.98744 4.04786 5.28033 4.34076C5.57323 4.63366 5.57323 5.10853 5.28033 5.40143ZM9.52301 5.40143C9.23011 5.69432 8.75523 5.69432 8.46234 5.40143C8.16944 5.10853 8.16944 4.63366 8.46234 4.34076C8.75524 4.04786 9.23011 4.04786 9.52301 4.34076C9.8159 4.63365 9.8159 5.10853 9.52301 5.40143Z">
</path>
<path   fill="rgba(32, 32, 39, 1)"  d="M11.6504 10.2197L15.1504 13.7197L14.0898 14.7803L10.5898 11.2803L11.6504 10.2197ZM11.1201 11.5C10.7059 11.5 10.3701 11.1642 10.3701 10.75C10.3701 10.3358 10.7059 10 11.1201 10C11.5343 10 11.8701 10.3358 11.8701 10.75C11.8701 11.1642 11.5343 11.5 11.1201 11.5ZM14.6201 15C14.2059 15 13.8701 14.6642 13.8701 14.25C13.8701 13.8358 14.2059 13.5 14.6201 13.5C15.0343 13.5 15.3701 13.8358 15.3701 14.25C15.3701 14.6642 15.0343 15 14.6201 15Z">
</path>
</svg>
