<svg xmlns="http://www.w3.org/2000/svg" xmlns:xlink="http://www.w3.org/1999/xlink" width="15.5" height="15.5" viewBox="0 0 15.5 15.5" fill="none">
<path   fill="rgba(32, 32, 39, 1)"  d="M7.75 1.5L2.75 1.5L2.75 1.5C2.05964 1.5 1.5 2.05964 1.5 2.75L1.5 2.75L1.5 12.75L0.75 12.75L1.5 12.75C1.5 13.4404 2.05964 14 2.75 14L2.75 14.75L2.75 14L12.75 14L12.75 14.75L12.75 14C13.4404 14 14 13.4404 14 12.75L14.75 12.75L14 12.75L14 7.75L15.5 7.75L15.5 12.75L15.5 12.75C15.5 14.2688 14.2688 15.5 12.75 15.5L12.75 15.5L2.75 15.5L2.75 15.5C1.23122 15.5 0 14.2688 0 12.75L0 12.75L0 2.75L0.75 2.75L0 2.75C0 1.23122 1.23122 0 2.75 0L2.75 0.75L2.75 0L7.75 0L7.75 1.5ZM7.75 1.5C7.33579 1.5 7 1.16421 7 0.75C7 0.335786 7.33579 0 7.75 0C8.16421 0 8.5 0.335786 8.5 0.75C8.5 1.16421 8.16421 1.5 7.75 1.5ZM14.75 8.5C14.3358 8.5 14 8.16421 14 7.75C14 7.33579 14.3358 7 14.75 7C15.1642 7 15.5 7.33579 15.5 7.75C15.5 8.16421 15.1642 8.5 14.75 8.5Z">
</path>
<path   fill="rgba(32, 32, 39, 1)"  d="M6.27825 6.16109L12.0782 0.361091L12.0782 0.361091L12.0782 0.361091Q12.3565 0.0828427 12.75 0.0828427Q13.1435 0.0828427 13.4218 0.361091L13.4218 0.361091L15.1389 2.07825L14.6086 2.60858L15.1389 2.07825C15.5099 2.44925 15.5099 3.05075 15.1389 3.42175L14.6086 2.89142L15.1389 3.42175L9.33891 9.22175L9.33891 9.22175L9.33891 9.22175Q9.06066 9.5 8.66716 9.5L8.66716 8.75L8.66716 9.5L6.75 9.5L6 8.75L6 6.83284L6.75 6.83284L6 6.83284L6.75 6.83284L6 6.83284Q6 6.43934 6.27825 6.16109L6.80858 6.69142L6.27825 6.16109ZM7.33891 7.22175L7.33891 7.22175Q7.5 7.06066 7.5 6.83284L7.5 6.83284L7.5 6.83284L7.5 8.75L6.75 8.75L6.75 8L8.66716 8L8.66716 8Q8.43934 8 8.27825 8.16109L8.80858 8.69142L8.27825 8.16109L8.80858 8.69142L8.27825 8.16109L14.0782 2.36109L14.0782 2.36109C13.8635 2.57588 13.8635 2.92412 14.0782 3.13891L14.0782 3.13891L12.3611 1.42175L12.8914 0.891421L12.3611 1.42175Q12.5222 1.58284 12.75 1.58284Q12.9778 1.58284 13.1389 1.42175L12.6086 0.891421L13.1389 1.42175L12.6086 0.891421L13.1389 1.42175L7.33891 7.22175ZM6 8.75L6.75 8.75L6.75 9.5L6 9.5L6 8.75Z">
</path>
</svg>
